<svg width="25" height="30" viewBox="0 0 25 30" fill="none" xmlns="http://www.w3.org/2000/svg">
<path d="M3.125 30C2.68229 30 2.31146 29.8484 2.0125 29.5453C1.71354 29.2421 1.56354 28.8674 1.5625 28.421V25.1842C1.09375 24.6579 0.716146 24.0726 0.429688 23.4284C0.143229 22.7842 0 22.08 0 21.3158V6.31579C0 4.13158 1.0026 2.53316 3.00781 1.52053C5.01302 0.507895 8.17708 0.00105263 12.5 0C16.9792 0 20.1823 0.486842 22.1094 1.46053C24.0365 2.43421 25 4.05263 25 6.31579V21.3158C25 22.0789 24.8568 22.7832 24.5703 23.4284C24.2839 24.0737 23.9063 24.6589 23.4375 25.1842V28.421C23.4375 28.8684 23.2875 29.2437 22.9875 29.5468C22.6875 29.85 22.3167 30.001 21.875 30H20.3125C19.8698 30 19.499 29.8484 19.2 29.5453C18.901 29.2421 18.751 28.8674 18.75 28.421V26.8421H6.25V28.421C6.25 28.8684 6.1 29.2437 5.8 29.5468C5.5 29.85 5.12917 30.001 4.6875 30H3.125ZM12.5781 4.73684H21.3281H3.82812H12.5781ZM18.75 15.7895H3.125H21.875H18.75ZM3.125 12.6316H21.875V7.89474H3.125V12.6316ZM7.03125 22.1053C7.68229 22.1053 8.23594 21.8753 8.69219 21.4153C9.14844 20.9553 9.37604 20.3958 9.375 19.7368C9.37396 19.0779 9.14635 18.5189 8.69219 18.06C8.23802 17.601 7.68438 17.3705 7.03125 17.3684C6.37812 17.3663 5.825 17.5968 5.37188 18.06C4.91875 18.5232 4.69063 19.0821 4.6875 19.7368C4.68437 20.3916 4.9125 20.951 5.37188 21.4153C5.83125 21.8795 6.38437 22.1095 7.03125 22.1053ZM17.9688 22.1053C18.6198 22.1053 19.1734 21.8753 19.6297 21.4153C20.0859 20.9553 20.3135 20.3958 20.3125 19.7368C20.3115 19.0779 20.0839 18.5189 19.6297 18.06C19.1755 17.601 18.6219 17.3705 17.9688 17.3684C17.3156 17.3663 16.7625 17.5968 16.3094 18.06C15.8562 18.5232 15.6281 19.0821 15.625 19.7368C15.6219 20.3916 15.85 20.951 16.3094 21.4153C16.7687 21.8795 17.3219 22.1095 17.9688 22.1053ZM3.82812 4.73684H21.3281C20.9375 4.28947 20.0979 3.91474 18.8094 3.61263C17.5208 3.31053 15.4438 3.15895 12.5781 3.15789C9.79167 3.15789 7.75417 3.32263 6.46562 3.6521C5.17708 3.98158 4.29792 4.34316 3.82812 4.73684ZM6.25 23.6842H18.75C19.6094 23.6842 20.3453 23.3753 20.9578 22.7574C21.5703 22.1395 21.876 21.3958 21.875 20.5263V15.7895H3.125V20.5263C3.125 21.3947 3.43125 22.1384 4.04375 22.7574C4.65625 23.3763 5.39167 23.6853 6.25 23.6842Z" fill="white"/>
</svg>
