<svg width="18" height="26" viewBox="0 0 18 26" fill="none" xmlns="http://www.w3.org/2000/svg">
<path d="M16.9209 23.5882L14.9069 6.64706H17V1H12.6364V2.41176H11.1819V1H6.81827V2.41176H5.36373V1H1.00013V6.64706H3.09321L1.07921 23.5882L1 25H17L16.9209 23.5882ZM2.45467 5.23529V2.41176H3.9092V3.82353H8.2728V2.41176H9.72733V3.82353H14.0909V2.41176H15.5455V5.23529C15.0149 5.23529 3.69655 5.23529 2.45467 5.23529ZM7.54553 23.5882V20.7647C7.54553 19.9863 8.19804 19.3529 9.00007 19.3529C9.8021 19.3529 10.4546 19.9863 10.4546 20.7647V23.5882H7.54553ZM11.9091 23.5882V20.7647C11.9091 19.2078 10.6041 17.9412 9.00007 17.9412C7.39601 17.9412 6.091 19.2078 6.091 20.7647V23.5882H2.54339L3.38256 16.5294H6.091V15.1176H3.55042L4.55744 6.64706H13.4428L14.4498 15.1176H11.9091V16.5294H14.6175L15.4567 23.5882H11.9091Z" fill="#F6F6F6" stroke="#F6F6F6" stroke-width="0.2"/>
</svg>
