<svg width="23" height="23" viewBox="0 0 23 23" fill="none" xmlns="http://www.w3.org/2000/svg">
<path d="M1.25 22.5C0.895838 22.5 0.599171 22.38 0.360004 22.14C0.120838 21.9 0.000837644 21.6033 4.31034e-06 21.25C-0.000829023 20.8967 0.119171 20.6 0.360004 20.36C0.600838 20.12 0.897504 20 1.25 20H18.75C19.1042 20 19.4013 20.12 19.6413 20.36C19.8813 20.6 20.0008 20.8967 20 21.25C19.9992 21.6033 19.8792 21.9004 19.64 22.1412C19.4008 22.3821 19.1042 22.5017 18.75 22.5H1.25ZM5 17.5C3.625 17.5 2.44792 17.0104 1.46875 16.0312C0.489588 15.0521 4.31034e-06 13.875 4.31034e-06 12.5V2.5C4.31034e-06 1.8125 0.245004 1.22417 0.735004 0.735C1.225 0.245833 1.81334 0.000833333 2.5 0H20C20.6875 0 21.2763 0.245 21.7663 0.735C22.2563 1.225 22.5008 1.81333 22.5 2.5V6.25C22.5 6.9375 22.2554 7.52625 21.7663 8.01625C21.2771 8.50625 20.6883 8.75083 20 8.75H17.5V12.5C17.5 13.875 17.0104 15.0521 16.0313 16.0312C15.0521 17.0104 13.875 17.5 12.5 17.5H5ZM5 15H12.5C13.1875 15 13.7763 14.7554 14.2663 14.2663C14.7563 13.7771 15.0008 13.1883 15 12.5V2.5H2.5V12.5C2.5 13.1875 2.745 13.7762 3.235 14.2663C3.725 14.7563 4.31334 15.0008 5 15ZM17.5 6.25H20V2.5H17.5V6.25ZM5 15H2.5H15H5Z" fill="#F8F8F8"/>
</svg>
