<svg width="20" height="20" viewBox="0 0 20 20" fill="none" xmlns="http://www.w3.org/2000/svg">
<path d="M0.962542 20C0.783913 20 0.621524 19.9492 0.475373 19.8477C0.329223 19.7463 0.21555 19.6118 0.134356 19.4444C0.0531608 19.277 0.00866615 19.0963 0.000871457 18.9022C-0.00692324 18.7081 0.0375714 18.5185 0.134356 18.3333L9.14697 0.555555C9.2444 0.37037 9.37042 0.231481 9.52501 0.138889C9.67961 0.0462962 9.83778 0 9.99952 0C10.1613 0 10.3197 0.0462962 10.475 0.138889C10.6302 0.231481 10.7559 0.37037 10.8521 0.555555L19.8647 18.3333C19.9621 18.5185 20.0069 18.7085 19.9991 18.9033C19.9913 19.0981 19.9465 19.2785 19.8647 19.4444C19.7828 19.6103 19.6692 19.7448 19.5237 19.8477C19.3782 19.9507 19.2158 20.0015 19.0365 20H0.962542ZM2.64327 17.7778H17.3558L9.99952 3.33333L2.64327 17.7778ZM9.99952 16.6666C10.2756 16.6666 10.5071 16.56 10.6942 16.3466C10.8813 16.1333 10.9745 15.8696 10.9739 15.5555C10.9732 15.2415 10.8797 14.9778 10.6932 14.7644C10.5068 14.5511 10.2756 14.4444 9.99952 14.4444C9.72345 14.4444 9.49221 14.5511 9.30579 14.7644C9.11937 14.9778 9.02583 15.2415 9.02518 15.5555C9.02453 15.8696 9.11807 16.1337 9.30579 16.3478C9.49351 16.5618 9.72475 16.6681 9.99952 16.6666ZM9.99952 13.3333C10.2756 13.3333 10.5071 13.2266 10.6942 13.0133C10.8813 12.8 10.9745 12.5363 10.9739 12.2222V8.88888C10.9739 8.57406 10.8803 8.31036 10.6932 8.09777C10.5062 7.88517 10.2749 7.77851 9.99952 7.77777C9.7241 7.77702 9.49286 7.88369 9.30579 8.09777C9.11872 8.31184 9.02518 8.57554 9.02518 8.88888V12.2222C9.02518 12.537 9.11872 12.8011 9.30579 13.0144C9.49286 13.2278 9.7241 13.3341 9.99952 13.3333Z" fill="#F8F8F8"/>
</svg>
