<svg width="26" height="26" viewBox="0 0 26 26" fill="none" xmlns="http://www.w3.org/2000/svg">
<path d="M11.1667 20.1944H15.3333V15.3333H20.1944V11.1667H15.3333V6.30555H11.1667V11.1667H6.30555V15.3333H11.1667V20.1944ZM3.52778 25.75C2.76389 25.75 2.11019 25.4782 1.56667 24.9347C1.02315 24.3912 0.750926 23.737 0.75 22.9722V3.52778C0.75 2.76389 1.02222 2.11019 1.56667 1.56667C2.11111 1.02315 2.76481 0.750926 3.52778 0.75H22.9722C23.7361 0.75 24.3903 1.02222 24.9347 1.56667C25.4792 2.11111 25.7509 2.76481 25.75 3.52778V22.9722C25.75 23.7361 25.4782 24.3903 24.9347 24.9347C24.3912 25.4792 23.737 25.7509 22.9722 25.75H3.52778Z" fill="#F8F8F8"/>
</svg>
