<svg width="25" height="25" viewBox="0 0 25 25" fill="none" xmlns="http://www.w3.org/2000/svg">
<path d="M12.5 25L10.6875 23.2289C8.58333 21.1626 6.84375 19.3801 5.46875 17.8815C4.09375 16.3828 3 15.0372 2.1875 13.8447C1.375 12.6521 0.8075 11.5568 0.485 10.5586C0.1625 9.5604 0.000833333 8.5386 0 7.49319C0 5.35876 0.65625 3.57629 1.96875 2.14578C3.28125 0.715259 4.91667 0 6.875 0C7.95833 0 8.98958 0.249773 9.96875 0.749319C10.9479 1.24886 11.7917 1.95277 12.5 2.86104C13.2083 1.95277 14.0521 1.24886 15.0312 0.749319C16.0104 0.249773 17.0417 0 18.125 0C20.0833 0 21.7187 0.715259 23.0312 2.14578C24.3437 3.57629 25 5.35876 25 7.49319C25 8.53769 24.8388 9.55949 24.5163 10.5586C24.1938 11.5577 23.6258 12.653 22.8125 13.8447C21.9992 15.0363 20.9054 16.3819 19.5312 17.8815C18.1571 19.381 16.4175 21.1635 14.3125 23.2289L12.5 25Z" fill="white"/>
</svg>
