<svg width="25" height="25" viewBox="0 0 25 25" fill="none" xmlns="http://www.w3.org/2000/svg">
<path d="M3.125 22.1429H7.8125V15C7.8125 14.5952 7.9625 14.2562 8.2625 13.9829C8.5625 13.7095 8.93333 13.5724 9.375 13.5714H15.625C16.0677 13.5714 16.4391 13.7086 16.7391 13.9829C17.0391 14.2571 17.1885 14.5962 17.1875 15V22.1429H21.875V9.28571L12.5 2.85714L3.125 9.28571V22.1429ZM0 22.1429V9.28571C0 8.83333 0.110937 8.40476 0.332812 8C0.554687 7.59524 0.860417 7.2619 1.25 7L10.625 0.571429C11.1719 0.190476 11.7969 0 12.5 0C13.2031 0 13.8281 0.190476 14.375 0.571429L23.75 7C24.1406 7.2619 24.4469 7.59524 24.6687 8C24.8906 8.40476 25.001 8.83333 25 9.28571V22.1429C25 22.9286 24.6937 23.6014 24.0812 24.1614C23.4687 24.7214 22.7333 25.0009 21.875 25H15.625C15.1823 25 14.8115 24.8629 14.5125 24.5886C14.2135 24.3143 14.0635 23.9752 14.0625 23.5714V16.4286H10.9375V23.5714C10.9375 23.9762 10.7875 24.3157 10.4875 24.59C10.1875 24.8643 9.81666 25.0009 9.375 25H3.125C2.26562 25 1.53021 24.7205 0.91875 24.1614C0.307291 23.6024 0.00104167 22.9295 0 22.1429Z" fill="white"/>
</svg>
