<svg width="25" height="25" viewBox="0 0 25 25" fill="none" xmlns="http://www.w3.org/2000/svg">
<path d="M2.5 25C1.8125 25 1.22417 24.7425 0.735 24.2276C0.245833 23.7127 0.000833333 23.093 0 22.3684V7.89474C0 7.17105 0.245 6.55175 0.735 6.03684C1.225 5.52193 1.81333 5.26403 2.5 5.26316H7.5V2.63158C7.5 1.90789 7.745 1.2886 8.235 0.773684C8.725 0.258772 9.31333 0.000877193 10 0H15C15.6875 0 16.2762 0.257895 16.7662 0.773684C17.2562 1.28947 17.5008 1.90877 17.5 2.63158V5.26316H22.5C23.1875 5.26316 23.7762 5.52105 24.2662 6.03684C24.7562 6.55263 25.0008 7.17193 25 7.89474V22.3684C25 23.0921 24.7554 23.7118 24.2662 24.2276C23.7771 24.7434 23.1883 25.0009 22.5 25H2.5ZM2.5 22.3684H22.5V7.89474H2.5V22.3684ZM10 5.26316H15V2.63158H10V5.26316Z" fill="white"/>
</svg>
