<svg width="24" height="25" viewBox="0 0 24 25" fill="none" xmlns="http://www.w3.org/2000/svg">
<path d="M14.625 25V18.0233L11.3437 15.6977L9.78125 20.814L-1 19.186L-0.375 16.8605L7.125 18.0233L9.625 8.60466L6.8125 9.41861V13.3721H3.6875V7.90698L9.85937 5.93024C10.7708 5.63954 11.4417 5.45078 11.8719 5.36396C12.3021 5.27714 12.699 5.23334 13.0625 5.23256C13.6094 5.23256 14.1172 5.33915 14.5859 5.55233C15.0547 5.76551 15.4323 6.04652 15.7187 6.39535L17.2812 8.25582C17.9583 9.06977 18.8766 9.73838 20.0359 10.2616C21.1953 10.7849 22.5167 11.0465 24 11.0465V13.3721C22.2812 13.3721 20.6729 13.1058 19.175 12.5733C17.6771 12.0407 16.4208 11.338 15.4062 10.4651L14.4687 13.9535L17.75 16.2791V25H14.625ZM15.4062 4.65117C14.5469 4.65117 13.8115 4.42365 13.2 3.96861C12.5885 3.51357 12.2823 2.9659 12.2812 2.32559C12.2802 1.68528 12.5865 1.13799 13.2 0.683729C13.8135 0.229465 14.549 0.00155824 15.4062 7.85669e-06C16.2635 -0.00154253 16.9995 0.226364 17.6141 0.683729C18.2286 1.14109 18.5344 1.68838 18.5312 2.32559C18.5281 2.9628 18.2224 3.51047 17.6141 3.96861C17.0057 4.42675 16.2698 4.65427 15.4062 4.65117Z" fill="#F8F8F8"/>
</svg>
